<svg width="170" height="60" viewBox="0 0 170 60" fill="none" xmlns="http://www.w3.org/2000/svg">
<path fill-rule="evenodd" clip-rule="evenodd" d="M66.8994 36.2949L65.2349 43.1392H63.4232L62.3639 38.9085L61.3383 43.1392H59.5266L57.8621 36.2949H59.5771L60.4808 40.8884L61.5863 36.2949H63.2256L64.2765 40.8884L65.2307 36.2949H66.8994Z" fill="white"/>
<path fill-rule="evenodd" clip-rule="evenodd" d="M73.663 39.7207C73.663 40.8264 73.3813 41.6962 72.8097 42.3299C72.2422 42.9637 71.4604 43.2827 70.4726 43.2827C69.4806 43.2827 68.6987 42.9593 68.1355 42.3212C67.568 41.6787 67.2864 40.8133 67.2864 39.7207C67.2864 38.6193 67.568 37.7496 68.1355 37.1115C68.6987 36.4733 69.4806 36.1543 70.4726 36.1543C71.4604 36.1543 72.2422 36.4733 72.8097 37.1071C73.3813 37.7408 73.663 38.6149 73.663 39.7207ZM71.9564 39.7163C71.9564 39.3099 71.9186 38.9602 71.8345 38.6761C71.7546 38.3877 71.6453 38.1516 71.5108 37.9681C71.3679 37.7802 71.2082 37.649 71.0316 37.566C70.8509 37.4873 70.6659 37.4436 70.4768 37.4436C70.2708 37.4436 70.0901 37.483 69.9219 37.5573C69.758 37.6316 69.5983 37.767 69.4469 37.9593C69.3124 38.1385 69.1989 38.3745 69.1149 38.6674C69.035 38.9602 68.993 39.3142 68.993 39.7207C68.993 40.1403 69.0308 40.4899 69.1107 40.7653C69.1905 41.045 69.2998 41.2766 69.4385 41.4645C69.5772 41.6525 69.7412 41.788 69.9177 41.8666C70.0985 41.9497 70.2834 41.989 70.4768 41.989C70.6701 41.989 70.8593 41.9453 71.0442 41.8579C71.225 41.7749 71.3805 41.6394 71.515 41.4514C71.6579 41.2548 71.7672 41.0231 71.8429 40.7565C71.9186 40.4899 71.9564 40.1446 71.9564 39.7163Z" fill="white"/>
<path fill-rule="evenodd" clip-rule="evenodd" d="M80.6828 43.1392H78.6651L76.8324 40.6305H76.2397V43.1392H74.5962V36.2949H77.2444C77.61 36.2949 77.9253 36.3211 78.1985 36.3692C78.4675 36.4173 78.7198 36.5135 78.9509 36.6621C79.1863 36.8194 79.3713 37.0204 79.51 37.2608C79.6487 37.5012 79.7202 37.8071 79.7202 38.1786C79.7202 38.6987 79.6067 39.1271 79.3797 39.4505C79.1527 39.7783 78.8501 40.0405 78.4675 40.2328L80.6828 43.1392ZM78.022 38.3928C78.022 38.2223 77.9884 38.0737 77.9253 37.947C77.8623 37.8246 77.7572 37.7285 77.61 37.6629C77.5092 37.6148 77.3915 37.5886 77.2654 37.5755C77.1393 37.5624 76.9795 37.5536 76.7946 37.5536H76.2397V39.398H76.7147C76.9417 39.398 77.1393 39.3849 77.299 39.3543C77.4587 39.3237 77.5974 39.2625 77.7067 39.1708C77.8118 39.0834 77.8917 38.9785 77.9463 38.8605C77.9968 38.7424 78.022 38.5851 78.022 38.3928Z" fill="white"/>
<path fill-rule="evenodd" clip-rule="evenodd" d="M85.5164 43.1392H81.1238V36.2949H82.7757V41.8368H85.5164V43.1392Z" fill="white"/>
<path fill-rule="evenodd" clip-rule="evenodd" d="M92.1367 39.7258C92.1367 40.3639 92.0064 40.9321 91.7373 41.4391C91.4683 41.9417 91.1278 42.3263 90.7201 42.5973C90.3754 42.8289 90.0055 42.9775 89.602 43.0431C89.2027 43.1087 88.7739 43.1392 88.3199 43.1392H86.2603V36.2949H88.2989C88.7655 36.2949 89.1985 36.3255 89.602 36.3867C90.0055 36.4479 90.3838 36.5965 90.7369 36.8325C91.1699 37.121 91.5103 37.5099 91.7626 37.9994C92.0148 38.489 92.1367 39.0615 92.1367 39.7258ZM90.4385 39.7127C90.4385 39.2625 90.367 38.8779 90.2157 38.5545C90.0686 38.2355 89.8416 37.9863 89.5305 37.8028C89.3077 37.676 89.0724 37.6061 88.8244 37.593C88.5806 37.5799 88.2863 37.5755 87.9416 37.5755H87.9122V41.8587H87.9416C88.3157 41.8587 88.6268 41.8499 88.8832 41.8368C89.1354 41.8237 89.3792 41.7407 89.6104 41.5921C89.8794 41.4129 90.0854 41.1681 90.2283 40.8578C90.3712 40.5431 90.4385 40.1629 90.4385 39.7127Z" fill="white"/>
<path fill-rule="evenodd" clip-rule="evenodd" d="M100.745 38.4584C100.745 38.7774 100.695 39.079 100.598 39.3674C100.502 39.6559 100.359 39.8963 100.178 40.0886C100.064 40.2066 99.9425 40.3159 99.808 40.4207C99.6735 40.5213 99.5264 40.6043 99.3624 40.6786C99.2027 40.7485 99.0262 40.801 98.837 40.8403C98.6479 40.8797 98.4335 40.9015 98.1981 40.9015H97.3322V43.1392H95.676V36.2949H98.2317C98.6142 36.2949 98.9421 36.3343 99.2153 36.4042C99.4927 36.4785 99.7407 36.5921 99.9635 36.7451C100.212 36.9199 100.405 37.1472 100.539 37.4356C100.674 37.7197 100.745 38.0606 100.745 38.4584ZM99.0472 38.4977C99.0472 38.3054 99.0009 38.1393 98.9127 37.9994C98.8244 37.8596 98.7193 37.7634 98.5974 37.711C98.4377 37.6411 98.2906 37.6017 98.1476 37.593C98.0047 37.5799 97.8114 37.5755 97.5634 37.5755H97.3322V39.6253H97.4457C97.6012 39.6253 97.7483 39.6253 97.887 39.6209C98.0257 39.6166 98.1476 39.6034 98.2485 39.586C98.3368 39.5729 98.4335 39.5423 98.5302 39.4986C98.631 39.4548 98.7067 39.4024 98.7571 39.35C98.8706 39.2363 98.9463 39.1183 98.9883 38.9959C99.0262 38.8736 99.0472 38.7075 99.0472 38.4977Z" fill="white"/>
<path fill-rule="evenodd" clip-rule="evenodd" d="M107.576 39.7207C107.576 40.8264 107.29 41.6962 106.722 42.3299C106.155 42.9637 105.373 43.2827 104.385 43.2827C103.389 43.2827 102.611 42.9593 102.048 42.3212C101.481 41.6787 101.199 40.8133 101.199 39.7207C101.199 38.6193 101.481 37.7496 102.048 37.1115C102.611 36.4733 103.389 36.1543 104.385 36.1543C105.373 36.1543 106.155 36.4733 106.722 37.1071C107.29 37.7408 107.576 38.6149 107.576 39.7207ZM105.869 39.7163C105.869 39.3099 105.831 38.9602 105.747 38.6761C105.667 38.3877 105.558 38.1516 105.423 37.9681C105.28 37.7802 105.121 37.649 104.944 37.566C104.768 37.4873 104.579 37.4436 104.389 37.4436C104.188 37.4436 104.003 37.483 103.835 37.5573C103.671 37.6316 103.511 37.767 103.36 37.9593C103.225 38.1385 103.112 38.3745 103.027 38.6674C102.948 38.9602 102.906 39.3142 102.906 39.7207C102.906 40.1403 102.943 40.4899 103.023 40.7653C103.103 41.045 103.212 41.2766 103.351 41.4645C103.49 41.6525 103.654 41.788 103.83 41.8666C104.011 41.9497 104.196 41.989 104.389 41.989C104.583 41.989 104.772 41.9453 104.953 41.8579C105.138 41.7749 105.297 41.6394 105.428 41.4514C105.571 41.2548 105.68 41.0231 105.755 40.7565C105.831 40.4899 105.869 40.1446 105.869 39.7163Z" fill="white"/>
<path fill-rule="evenodd" clip-rule="evenodd" d="M110.544 43.2653C110.04 43.2653 109.598 43.2129 109.216 43.1123C108.833 43.0118 108.48 42.8851 108.152 42.7365V41.1063H108.304C108.632 41.3991 108.997 41.622 109.392 41.7793C109.792 41.9367 110.178 42.0153 110.553 42.0153C110.645 42.0153 110.771 42.0022 110.927 41.9804C111.078 41.9585 111.204 41.9279 111.301 41.8798C111.414 41.8274 111.511 41.7575 111.591 41.6613C111.671 41.5695 111.708 41.4472 111.708 41.2898C111.708 41.1194 111.645 40.9795 111.515 40.8746C111.385 40.7653 111.229 40.6867 111.053 40.6386C110.826 40.5774 110.586 40.5206 110.334 40.4638C110.078 40.4113 109.838 40.3414 109.619 40.2627C109.111 40.0748 108.745 39.8257 108.522 39.5066C108.304 39.1919 108.19 38.7986 108.19 38.3222C108.19 37.6841 108.451 37.164 108.972 36.7663C109.493 36.3686 110.145 36.1719 110.927 36.1719C111.318 36.1719 111.708 36.2112 112.095 36.2943C112.482 36.3773 112.831 36.4909 113.138 36.6308V38.1954H112.99C112.747 37.9769 112.448 37.7934 112.095 37.6404C111.746 37.4918 111.385 37.4175 111.011 37.4175C110.868 37.4175 110.737 37.4262 110.624 37.4481C110.506 37.4699 110.389 37.5136 110.258 37.5748C110.157 37.6229 110.069 37.6928 109.993 37.7934C109.918 37.8895 109.88 37.9944 109.88 38.1168C109.88 38.2916 109.939 38.4315 110.061 38.532C110.178 38.6325 110.41 38.7287 110.75 38.8117C110.973 38.8598 111.183 38.9122 111.389 38.9603C111.595 39.0127 111.814 39.0783 112.045 39.1657C112.503 39.3362 112.843 39.5634 113.066 39.8563C113.289 40.1447 113.398 40.5293 113.398 41.0014C113.398 41.6832 113.142 42.2295 112.629 42.6447C112.112 43.0555 111.418 43.2653 110.544 43.2653Z" fill="white"/>
<path fill-rule="evenodd" clip-rule="evenodd" d="M118.837 43.2653C118.332 43.2653 117.891 43.2129 117.509 43.1123C117.126 43.0118 116.773 42.8851 116.445 42.7365V41.1063H116.596C116.924 41.3991 117.29 41.622 117.689 41.7793C118.084 41.9367 118.471 42.0153 118.845 42.0153C118.942 42.0153 119.064 42.0022 119.219 41.9804C119.375 41.9585 119.501 41.9279 119.593 41.8798C119.707 41.8274 119.804 41.7575 119.883 41.6613C119.963 41.5695 120.005 41.4472 120.005 41.2898C120.005 41.1194 119.938 40.9795 119.808 40.8746C119.682 40.7653 119.526 40.6867 119.345 40.6386C119.123 40.5774 118.883 40.5206 118.627 40.4638C118.374 40.4113 118.135 40.3414 117.912 40.2627C117.403 40.0748 117.038 39.8257 116.819 39.5066C116.596 39.1919 116.487 38.7986 116.487 38.3222C116.487 37.6841 116.748 37.164 117.269 36.7663C117.79 36.3686 118.442 36.1719 119.224 36.1719C119.614 36.1719 120.005 36.2112 120.392 36.2943C120.779 36.3773 121.128 36.4909 121.435 36.6308V38.1954H121.287C121.044 37.9769 120.745 37.7934 120.392 37.6404C120.039 37.4918 119.677 37.4175 119.308 37.4175C119.16 37.4175 119.03 37.4262 118.917 37.4481C118.803 37.4699 118.681 37.5136 118.555 37.5748C118.45 37.6229 118.362 37.6928 118.286 37.7934C118.211 37.8895 118.173 37.9944 118.173 38.1168C118.173 38.2916 118.236 38.4315 118.353 38.532C118.471 38.6325 118.702 38.7287 119.047 38.8117C119.266 38.8598 119.48 38.9122 119.686 38.9603C119.888 39.0127 120.106 39.0783 120.342 39.1657C120.796 39.3362 121.136 39.5634 121.359 39.8563C121.582 40.1447 121.695 40.5293 121.695 41.0014C121.695 41.6832 121.435 42.2295 120.922 42.6447C120.409 43.0555 119.711 43.2653 118.837 43.2653Z" fill="white"/>
<path fill-rule="evenodd" clip-rule="evenodd" d="M128.487 39.7207C128.487 40.8264 128.202 41.6962 127.634 42.3299C127.063 42.9637 126.285 43.2827 125.293 43.2827C124.301 43.2827 123.523 42.9593 122.956 42.3212C122.388 41.6787 122.107 40.8133 122.107 39.7207C122.107 38.6193 122.388 37.7496 122.956 37.1115C123.523 36.4733 124.301 36.1543 125.293 36.1543C126.285 36.1543 127.063 36.4733 127.634 37.1071C128.202 37.7408 128.487 38.6149 128.487 39.7207ZM126.781 39.7163C126.781 39.3099 126.739 38.9602 126.659 38.6761C126.579 38.3877 126.47 38.1516 126.335 37.9681C126.192 37.7802 126.033 37.649 125.852 37.566C125.675 37.4873 125.49 37.4436 125.301 37.4436C125.095 37.4436 124.91 37.483 124.746 37.5573C124.583 37.6316 124.423 37.767 124.271 37.9593C124.133 38.1385 124.023 38.3745 123.939 38.6674C123.855 38.9602 123.813 39.3142 123.813 39.7207C123.813 40.1403 123.851 40.4899 123.935 40.7653C124.011 41.045 124.12 41.2766 124.259 41.4645C124.402 41.6525 124.561 41.788 124.742 41.8666C124.923 41.9497 125.108 41.989 125.301 41.989C125.495 41.989 125.684 41.9453 125.865 41.8579C126.049 41.7749 126.205 41.6394 126.34 41.4514C126.478 41.2548 126.588 41.0231 126.663 40.7565C126.743 40.4899 126.781 40.1446 126.781 39.7163Z" fill="white"/>
<path fill-rule="evenodd" clip-rule="evenodd" d="M133.814 43.1392H129.417V36.2949H131.073V41.8368H133.814V43.1392Z" fill="white"/>
<path fill-rule="evenodd" clip-rule="evenodd" d="M137.214 43.2835C136.332 43.2835 135.651 43.0606 135.176 42.6148C134.701 42.1733 134.461 41.5221 134.461 40.6655V36.2949H136.113V40.565C136.113 41.0414 136.201 41.3954 136.374 41.627C136.546 41.863 136.828 41.9767 137.214 41.9767C137.597 41.9767 137.874 41.8674 138.055 41.6401C138.232 41.4172 138.32 41.0588 138.32 40.565V36.2949H139.972V40.6611C139.972 41.5046 139.741 42.1515 139.278 42.606C138.816 43.0562 138.127 43.2835 137.214 43.2835Z" fill="white"/>
<path fill-rule="evenodd" clip-rule="evenodd" d="M142.46 43.1392V37.6017H140.518V36.2949H146.062V37.6017H144.116V43.1392H142.46Z" fill="white"/>
<path fill-rule="evenodd" clip-rule="evenodd" d="M149.976 43.1392H146.433V41.9461H147.379V37.4925H146.433V36.2949H149.976V37.4925H149.031V41.9461H149.976V43.1392Z" fill="white"/>
<path fill-rule="evenodd" clip-rule="evenodd" d="M157.021 39.7207C157.021 40.8264 156.74 41.6962 156.168 42.3299C155.6 42.9637 154.823 43.2827 153.831 43.2827C152.835 43.2827 152.057 42.9593 151.494 42.3212C150.926 41.6787 150.645 40.8133 150.645 39.7207C150.645 38.6193 150.926 37.7496 151.494 37.1115C152.057 36.4733 152.835 36.1543 153.831 36.1543C154.823 36.1543 155.6 36.4733 156.168 37.1071C156.74 37.7408 157.021 38.6149 157.021 39.7207ZM155.315 39.7163C155.315 39.3099 155.273 38.9602 155.193 38.6761C155.113 38.3877 155.008 38.1516 154.869 37.9681C154.726 37.7802 154.566 37.649 154.39 37.566C154.213 37.4873 154.028 37.4436 153.835 37.4436C153.633 37.4436 153.448 37.483 153.284 37.5573C153.116 37.6316 152.961 37.767 152.805 37.9593C152.666 38.1385 152.561 38.3745 152.477 38.6674C152.393 38.9602 152.351 39.3142 152.351 39.7207C152.351 40.1403 152.389 40.4899 152.469 40.7653C152.549 41.045 152.658 41.2766 152.797 41.4645C152.935 41.6525 153.099 41.788 153.276 41.8666C153.457 41.9497 153.642 41.989 153.835 41.989C154.028 41.989 154.217 41.9453 154.402 41.8579C154.583 41.7749 154.743 41.6394 154.873 41.4514C155.016 41.2548 155.125 41.0231 155.201 40.7565C155.277 40.4899 155.315 40.1446 155.315 39.7163Z" fill="white"/>
<path fill-rule="evenodd" clip-rule="evenodd" d="M163.596 43.1392H162.002L159.468 38.3709V43.1392H157.955V36.2949H159.985L162.082 40.2153V36.2949H163.596V43.1392Z" fill="white"/>
<path fill-rule="evenodd" clip-rule="evenodd" d="M166.916 43.2653C166.415 43.2653 165.97 43.2129 165.587 43.1123C165.209 43.0118 164.852 42.8851 164.524 42.7365V41.1063H164.675C165.007 41.3991 165.369 41.622 165.768 41.7793C166.167 41.9367 166.55 42.0153 166.928 42.0153C167.021 42.0153 167.147 42.0022 167.298 41.9804C167.454 41.9585 167.58 41.9279 167.672 41.8798C167.79 41.8274 167.887 41.7575 167.967 41.6613C168.046 41.5695 168.084 41.4472 168.084 41.2898C168.084 41.1194 168.021 40.9795 167.891 40.8746C167.761 40.7653 167.605 40.6867 167.428 40.6386C167.202 40.5774 166.962 40.5206 166.706 40.4638C166.453 40.4113 166.214 40.3414 165.991 40.2627C165.482 40.0748 165.121 39.8257 164.898 39.5066C164.675 39.1919 164.566 38.7986 164.566 38.3222C164.566 37.6841 164.827 37.164 165.348 36.7663C165.869 36.3686 166.521 36.1719 167.302 36.1719C167.693 36.1719 168.084 36.2112 168.471 36.2943C168.858 36.3773 169.207 36.4909 169.513 36.6308V38.1954H169.366C169.122 37.9769 168.824 37.7934 168.471 37.6404C168.122 37.4918 167.756 37.4175 167.386 37.4175C167.244 37.4175 167.113 37.4262 166.996 37.4481C166.882 37.4699 166.76 37.5136 166.634 37.5748C166.533 37.6229 166.441 37.6928 166.365 37.7934C166.294 37.8895 166.256 37.9944 166.256 38.1168C166.256 38.2916 166.315 38.4315 166.432 38.532C166.554 38.6325 166.781 38.7287 167.126 38.8117C167.344 38.8598 167.559 38.9122 167.765 38.9603C167.971 39.0127 168.189 39.0783 168.421 39.1657C168.879 39.3362 169.219 39.5634 169.438 39.8563C169.661 40.1447 169.774 40.5293 169.774 41.0014C169.774 41.6832 169.518 42.2295 169.001 42.6447C168.488 43.0555 167.794 43.2653 166.916 43.2653Z" fill="white"/>
<path fill-rule="evenodd" clip-rule="evenodd" d="M28.762 0.486328C34.4828 0.486328 39.8128 2.23456 44.281 5.24152C42.2634 4.94869 40.1995 4.79572 38.102 4.79572C22.192 4.79572 8.23662 13.4713 0.363598 26.5219C2.12483 11.8455 14.1677 0.486328 28.762 0.486328ZM56.0674 21.3165C56.9207 24.1355 57.3789 27.1337 57.3789 30.2456C57.3789 46.679 44.5668 60.0005 28.762 60.0005C19.0857 60.0005 10.5317 55.0093 5.35307 47.3652C11.9566 31.2246 27.3454 19.9092 45.2772 19.9092C49.0057 19.9092 52.6206 20.3987 56.0674 21.3165ZM23.6254 36.3426L21.5152 44.8302H19.2202L17.8835 39.5768L16.5846 44.8302H14.2896L12.1794 36.3426H14.3526L15.5001 42.033L16.8999 36.3426H18.9764L20.3005 42.033L21.511 36.3426H23.6254ZM31.015 39.0392C31.015 39.4325 30.9561 39.8084 30.83 40.1624C30.7081 40.5208 30.5316 40.818 30.3004 41.054C30.1617 41.2026 30.0062 41.3381 29.838 41.4649C29.6657 41.5916 29.4807 41.6965 29.2748 41.7839C29.0688 41.8713 28.8502 41.9369 28.6106 41.9893C28.3668 42.0374 28.0978 42.0593 27.8036 42.0593H26.7107V44.8302H24.6258V36.3688H27.8456C28.3248 36.3688 28.7409 36.4125 29.0898 36.4999C29.4345 36.5917 29.7498 36.7315 30.0314 36.9238C30.3466 37.138 30.5862 37.4221 30.7586 37.7761C30.9309 38.1301 31.015 38.5497 31.015 39.0392ZM28.8712 39.0916C28.8712 38.8513 28.8166 38.6458 28.7073 38.4754C28.5938 38.3006 28.4593 38.1826 28.3038 38.117C28.1062 38.0296 27.9171 37.9815 27.7405 37.9684C27.5598 37.9553 27.316 37.9466 27.0049 37.9466H26.7107V40.4815H26.8536C27.0512 40.4815 27.2361 40.4815 27.4127 40.4771C27.5892 40.4727 27.7405 40.4596 27.8708 40.4378C27.9801 40.4159 28.0978 40.381 28.2239 40.3241C28.35 40.2717 28.4425 40.2105 28.5097 40.1406C28.6527 40.0007 28.7493 39.8565 28.7998 39.7035C28.8502 39.5506 28.8712 39.3495 28.8712 39.0916ZM39.4807 40.7743C39.4807 42.0855 39.136 43.1213 38.4466 43.8731C37.7615 44.6248 36.8157 45.0007 35.6177 45.0007C34.4156 45.0007 33.4698 44.6204 32.7846 43.8599C32.0995 43.0951 31.7548 42.068 31.7548 40.7743C31.7548 39.4675 32.0995 38.4361 32.7846 37.6799C33.4698 36.9195 34.4156 36.5436 35.6177 36.5436C36.8157 36.5436 37.7615 36.9195 38.4466 37.6756C39.136 38.4273 39.4807 39.4631 39.4807 40.7743ZM37.4168 40.7699C37.4168 40.2848 37.3664 39.874 37.2697 39.5331C37.1688 39.1922 37.0385 38.9168 36.8746 38.6983C36.7022 38.4754 36.5089 38.3181 36.2945 38.2175C36.0759 38.1214 35.8531 38.0733 35.6219 38.0733C35.3739 38.0733 35.1512 38.1214 34.9536 38.2088C34.7518 38.2962 34.5585 38.4579 34.3735 38.6852C34.2096 38.895 34.0751 39.1747 33.9742 39.5243C33.8733 39.874 33.8229 40.2892 33.8229 40.7743C33.8229 41.2726 33.8733 41.6878 33.9658 42.0156C34.0625 42.3434 34.197 42.6187 34.3651 42.8416C34.5333 43.0689 34.7308 43.2262 34.9452 43.3224C35.1638 43.4229 35.3908 43.4666 35.6219 43.4666C35.8573 43.4666 36.0843 43.4185 36.3071 43.3136C36.5299 43.2087 36.719 43.0514 36.8788 42.8329C37.0511 42.5925 37.1814 42.3171 37.2781 42.0024C37.3706 41.6921 37.4168 41.2769 37.4168 40.7699ZM43.1377 44.9701C42.524 44.9701 41.9859 44.9089 41.5194 44.7909C41.0528 44.6685 40.624 44.5199 40.2247 44.3407V42.3958H40.4096C40.809 42.7454 41.2545 43.0121 41.7379 43.2C42.2213 43.3836 42.6921 43.4797 43.1461 43.4797C43.2638 43.4797 43.4151 43.4666 43.6 43.4404C43.7892 43.4141 43.9405 43.3748 44.0582 43.3224C44.1969 43.2568 44.3146 43.1694 44.4113 43.0601C44.508 42.9465 44.5584 42.8023 44.5584 42.6187C44.5584 42.4133 44.4786 42.2472 44.3188 42.1205C44.1633 41.9937 43.9742 41.8976 43.7556 41.8407C43.4824 41.7664 43.1923 41.6965 42.8813 41.631C42.5702 41.5654 42.2802 41.4867 42.0112 41.3906C41.389 41.1677 40.9477 40.8661 40.6787 40.4902C40.4096 40.1144 40.2751 39.6423 40.2751 39.0742C40.2751 38.3137 40.5904 37.6931 41.2251 37.221C41.8598 36.749 42.6543 36.5086 43.6043 36.5086C44.0834 36.5086 44.5542 36.5611 45.0292 36.6572C45.5 36.7578 45.9245 36.8889 46.2944 37.0593V38.9212H46.1179C45.8195 38.6633 45.458 38.4448 45.0292 38.2656C44.6005 38.0864 44.1591 37.9946 43.7051 37.9946C43.5328 37.9946 43.3731 38.0077 43.2344 38.034C43.0914 38.0602 42.9443 38.1083 42.793 38.1826C42.6669 38.2438 42.5576 38.3268 42.4651 38.4448C42.3769 38.5584 42.3306 38.6852 42.3306 38.8294C42.3306 39.0392 42.4021 39.2053 42.5492 39.3233C42.6921 39.45 42.9737 39.5593 43.3899 39.6554C43.6589 39.721 43.9153 39.7778 44.1675 39.839C44.4155 39.8958 44.6845 39.9789 44.9662 40.0794C45.521 40.2848 45.9372 40.5602 46.2062 40.9054C46.4794 41.2507 46.6139 41.7052 46.6139 42.2734C46.6139 43.082 46.2986 43.7376 45.6723 44.2314C45.0502 44.7253 44.2011 44.9701 43.1377 44.9701ZM50.935 45.0007C50.3213 45.0007 49.7833 44.9438 49.3167 44.8215C48.8543 44.7035 48.4214 44.5505 48.0263 44.3713V42.4308H48.207C48.6105 42.7804 49.0519 43.047 49.5353 43.235C50.0229 43.4185 50.4895 43.5103 50.9476 43.5103C51.0611 43.5103 51.2125 43.4972 51.4016 43.471C51.5908 43.4491 51.7421 43.4054 51.8556 43.353C51.9985 43.2918 52.1162 43.2044 52.2129 43.0907C52.3096 42.9815 52.3558 42.8329 52.3558 42.6493C52.3558 42.4439 52.2801 42.2778 52.1204 42.1511C51.9607 42.0243 51.7757 41.9325 51.5571 41.8713C51.2839 41.797 50.9897 41.7315 50.6828 41.6615C50.3718 41.596 50.0817 41.5173 49.8127 41.4212C49.1906 41.1983 48.745 40.9011 48.476 40.5252C48.207 40.1493 48.0725 39.6773 48.0725 39.1091C48.0725 38.3443 48.392 37.728 49.0267 37.2516C49.6614 36.7796 50.4516 36.5436 51.4058 36.5436C51.8808 36.5436 52.3558 36.5917 52.8266 36.6922C53.2974 36.7927 53.7219 36.9238 54.096 37.0899V38.9562H53.9195C53.621 38.6983 53.2553 38.4754 52.8266 38.2962C52.3978 38.117 51.9607 38.0296 51.5067 38.0296C51.3302 38.0296 51.1746 38.0427 51.0317 38.0689C50.893 38.0952 50.7459 38.1432 50.5903 38.2175C50.4642 38.2743 50.3592 38.3618 50.2667 38.4754C50.1742 38.589 50.128 38.7201 50.128 38.8644C50.128 39.0698 50.1994 39.2359 50.3465 39.3582C50.4937 39.4806 50.7711 39.5899 51.1872 39.6904C51.4563 39.7516 51.7169 39.8128 51.9691 39.8696C52.2171 39.9308 52.4819 40.0095 52.7677 40.1144C53.3226 40.3154 53.7345 40.5908 54.0077 40.936C54.2768 41.2813 54.4113 41.7402 54.4113 42.304C54.4113 43.1169 54.1002 43.7682 53.4739 44.262C52.8476 44.7559 52.0027 45.0007 50.935 45.0007ZM18.514 13.2003C18.5939 13.161 18.6695 13.1217 18.7494 13.0823C19.0226 12.9468 19.3 12.8114 19.5817 12.6802C19.6153 12.6628 19.6531 12.6453 19.6868 12.6278C19.9432 12.5098 20.1996 12.3918 20.456 12.2781C20.5316 12.2476 20.6073 12.2126 20.683 12.1776C20.9646 12.0552 21.2504 11.9329 21.5363 11.8149C21.5867 11.7974 21.6371 11.7755 21.6876 11.758C21.9398 11.6532 22.192 11.5526 22.4442 11.4565C22.5157 11.4303 22.5913 11.3997 22.667 11.3734C22.957 11.2598 23.2471 11.1549 23.5413 11.05C23.6001 11.0325 23.6548 11.0107 23.7136 10.9932C23.97 10.9014 24.2222 10.8184 24.4829 10.731C24.5543 10.7091 24.6258 10.6829 24.6972 10.661C24.9957 10.5649 25.2941 10.4731 25.5926 10.3857C25.6556 10.3638 25.7187 10.3464 25.7817 10.3289C26.0423 10.2546 26.3071 10.1803 26.5678 10.1103C26.635 10.0885 26.7023 10.071 26.7653 10.0535C27.0722 9.97485 27.3748 9.89618 27.6859 9.82188C27.7531 9.8044 27.8204 9.78692 27.8918 9.77381C28.1609 9.70825 28.4299 9.64706 28.6989 9.59024C28.7577 9.57713 28.8208 9.56402 28.8796 9.55091C29.1907 9.48535 29.5018 9.42416 29.817 9.36297C29.8885 9.34986 29.9599 9.33675 30.0356 9.32364C30.313 9.27556 30.5904 9.22748 30.8721 9.17941C30.9225 9.17067 30.9772 9.16193 31.0276 9.15318C31.3471 9.10511 31.6665 9.05703 31.9818 9.01333C32.0616 9.00459 32.1373 8.99584 32.2172 8.9871C32.5072 8.94777 32.8014 8.9128 33.0915 8.88221C33.1335 8.87784 33.1713 8.87347 33.2134 8.8691C33.537 8.83413 33.8607 8.80354 34.1886 8.77732C34.2684 8.76857 34.3441 8.7642 34.424 8.75983C34.735 8.73361 35.0419 8.71613 35.3529 8.69864C35.3781 8.69427 35.4034 8.69427 35.4286 8.69427C35.7565 8.67679 36.0885 8.66368 36.4206 8.65494C36.5005 8.65057 36.5845 8.65057 36.6644 8.6462C37.0007 8.63746 37.3369 8.63309 37.6732 8.63309C37.896 8.63309 38.1188 8.63746 38.3374 8.63746L38.371 8.64183C38.5812 8.64183 38.7913 8.65057 39.0015 8.65494H39.0519C39.2621 8.66368 39.4723 8.67242 39.6783 8.68116L39.7413 8.68553C39.9347 8.69427 40.1322 8.70302 40.3256 8.71613L40.4433 8.72487C40.6156 8.73361 40.788 8.74672 40.9645 8.75983L41.141 8.77294C41.2924 8.78606 41.4437 8.79917 41.595 8.81665C41.6791 8.82102 41.7632 8.82976 41.8472 8.8385C41.9691 8.85161 42.0868 8.86473 42.2087 8.87784C42.3348 8.89095 42.4567 8.90406 42.5828 8.91717C42.6585 8.92591 42.7383 8.93466 42.814 8.9434C45.3445 9.25371 47.8077 9.78255 50.1868 10.5212C51.864 12.4879 53.2974 14.6907 54.4281 17.0727C51.0569 16.2073 47.5303 15.7484 43.8985 15.7484C25.6094 15.7484 9.9348 27.3785 3.33122 43.908C1.343 39.9089 0.195461 35.381 0.14502 30.5778L0.149223 30.5734C0.296343 30.3155 0.45187 30.062 0.603193 29.8129C0.662041 29.7211 0.716686 29.6293 0.77133 29.5376C0.910043 29.3147 1.04876 29.0961 1.19167 28.8776C1.23791 28.8077 1.28415 28.7334 1.33039 28.6634C1.47751 28.4405 1.62463 28.2176 1.77595 27.9947C1.8348 27.9073 1.89785 27.8199 1.9567 27.7325C2.11643 27.5009 2.27616 27.2692 2.44009 27.042C2.48633 26.9764 2.53257 26.9108 2.58301 26.8453C2.73013 26.6442 2.87725 26.4388 3.02857 26.2378C3.09162 26.1547 3.15467 26.0717 3.21772 25.9887C3.39847 25.7526 3.57922 25.521 3.75997 25.2894C3.8062 25.2282 3.85244 25.1714 3.90288 25.1145C4.05421 24.9222 4.20553 24.7343 4.36106 24.5464C4.42831 24.4677 4.49136 24.389 4.55862 24.3103C4.74777 24.0875 4.93693 23.8602 5.13028 23.6417C5.18493 23.5805 5.23957 23.5149 5.29422 23.4537C5.44974 23.2745 5.60947 23.0997 5.76921 22.9249C5.83646 22.8506 5.90371 22.7763 5.97097 22.7063C6.16853 22.4878 6.3703 22.2737 6.57206 22.0595C6.63511 21.9983 6.69396 21.9371 6.75281 21.8759C6.91674 21.7055 7.08488 21.535 7.25301 21.3689C7.32027 21.3034 7.38752 21.2378 7.45058 21.1679C7.66075 20.9625 7.87512 20.7571 8.08529 20.556C8.15255 20.4948 8.2198 20.4336 8.28285 20.3725C8.45519 20.2107 8.63174 20.049 8.80828 19.8873C8.87133 19.8305 8.93859 19.7693 9.00584 19.7081C9.22442 19.5115 9.4472 19.3148 9.66999 19.1225C9.73724 19.0657 9.8087 19.0088 9.87595 18.9477C10.0609 18.7903 10.2501 18.633 10.435 18.48C10.4981 18.4276 10.5569 18.3795 10.62 18.327C10.8511 18.1391 11.0823 17.9555 11.3177 17.772C11.3892 17.7151 11.4606 17.6583 11.5363 17.6015C11.7339 17.4485 11.9314 17.2999 12.1332 17.1513C12.1878 17.1076 12.2425 17.0683 12.2971 17.0246C12.5409 16.8498 12.7847 16.6749 13.0285 16.5001C13.1042 16.4477 13.1798 16.3952 13.2555 16.3428C13.4699 16.1942 13.6843 16.0456 13.9028 15.897C13.9491 15.8664 13.9911 15.8358 14.0373 15.8052C14.2896 15.6391 14.546 15.473 14.8024 15.3113C14.878 15.2633 14.9537 15.2152 15.0294 15.1671C15.2647 15.0185 15.5001 14.8743 15.7397 14.73C15.7734 14.7126 15.8028 14.6907 15.8364 14.6732C16.1012 14.5159 16.366 14.3629 16.6309 14.2099C16.7065 14.1662 16.7822 14.1225 16.862 14.0788C17.1311 13.9302 17.4673 13.7467 17.7406 13.6024C17.997 13.4626 18.2534 13.3315 18.514 13.2003Z" fill="white"/>
</svg>
